<svg width="203" height="91" viewBox="0 0 203 91" fill="none" xmlns="http://www.w3.org/2000/svg">
<g clip-path="url(#clip0_43_2)">
<path d="M197 0H6C2.68629 0 0 2.68629 0 6V85C0 88.3137 2.68629 91 6 91H197C200.314 91 203 88.3137 203 85V6C203 2.68629 200.314 0 197 0Z" fill="white"/>
<mask id="mask0_43_2" style="mask-type:luminance" maskUnits="userSpaceOnUse" x="16" y="22" width="46" height="46">
<path d="M62 22H16V68H62V22Z" fill="white"/>
</mask>
<g mask="url(#mask0_43_2)">
<path d="M39 68C26.3208 68 16 57.6792 16 45C16 39.3959 18.044 33.9829 21.75 29.7827C22.2442 29.2212 23.0977 29.165 23.6592 29.6592C24.2207 30.1533 24.2769 31.0068 23.7827 31.5683C20.5147 35.2744 18.7066 40.0474 18.7066 44.9887C18.7066 56.1743 27.8145 65.2822 39 65.2822C50.1855 65.2822 59.2934 56.1743 59.2934 44.9887C59.2934 33.8032 50.1855 24.7066 39 24.7066C35.9341 24.6953 32.913 25.3916 30.1616 26.7281C29.4878 27.0537 28.6792 26.7729 28.3535 26.0991C28.0278 25.4253 28.3086 24.6167 28.9825 24.291C32.1045 22.7749 35.5298 21.9887 39 22C51.6792 22 62 32.3208 62 45C62 57.6792 51.6792 68 39 68Z" fill="#343F52"/>
<path d="M55.2392 45C55.2392 53.9619 47.9731 61.2392 39 61.2392C30.0269 61.2392 22.7607 53.9619 22.7607 45C22.7607 36.038 30.038 28.7607 39 28.7607C47.9619 28.7607 55.2392 36.038 55.2392 45Z" fill="#7FACFC"/>
<path d="M39 62.5869C29.2969 62.5869 21.4131 54.7031 21.4131 45C21.4131 35.2968 29.2969 27.413 39 27.413C48.7031 27.413 56.587 35.2968 56.587 45C56.587 54.7031 48.7031 62.5869 39 62.5869ZM39 30.1196C30.7906 30.1196 24.1197 36.7906 24.1197 45C24.1197 53.2094 30.7906 59.8804 39 59.8804C47.2095 59.8804 53.8804 53.1982 53.8804 45C53.8804 36.8017 47.2095 30.1196 39 30.1196Z" fill="#343F52"/>
<path d="M38.5624 49.7056C37.574 49.7056 36.6307 49.3125 35.9232 48.6162L32.2846 44.9663C31.7567 44.4385 31.7567 43.585 32.2846 43.0571C32.8124 42.5293 33.6659 42.5293 34.1937 43.0571L37.8437 46.707C38.2479 47.1001 38.8881 47.1001 39.2812 46.707L44.8739 41.1031C45.4017 40.5752 46.2553 40.5752 46.783 41.1031C47.3109 41.6308 47.3109 42.4843 46.783 43.0122L41.2016 48.6162C40.5053 49.3125 39.5507 49.7056 38.5624 49.7056Z" fill="#36496D"/>
</g>
<path d="M128.184 38.9304V34.0488H123.303V31.086H128.184V26.2326H131.147V31.086H136.001V34.0488H131.147V38.9304H128.184Z" fill="#343F52"/>
<path d="M112.952 43.163C111.447 43.163 110.13 42.8479 109.001 42.2178C107.872 41.5876 106.993 40.7081 106.363 39.5794C105.733 38.4507 105.417 37.1339 105.417 35.629V29.5341C105.417 28.0291 105.733 26.7123 106.363 25.5836C106.993 24.4549 107.872 23.5755 109.001 22.9453C110.13 22.3151 111.447 22 112.952 22C114.456 22 115.773 22.3151 116.902 22.9453C118.031 23.5755 118.91 24.4549 119.54 25.5836C120.17 26.7123 120.486 28.0291 120.486 29.5341V35.629C120.486 37.1339 120.17 38.4507 119.54 39.5794C118.91 40.7081 118.031 41.5876 116.902 42.2178C115.773 42.8479 114.456 43.163 112.952 43.163ZM112.952 39.523C113.629 39.523 114.24 39.3631 114.786 39.0433C115.331 38.7235 115.764 38.2908 116.084 37.7453C116.403 37.1998 116.563 36.5884 116.563 35.9112V29.2237C116.563 28.5464 116.403 27.9351 116.084 27.3895C115.764 26.844 115.331 26.4113 114.786 26.0915C114.24 25.7717 113.629 25.6118 112.952 25.6118C112.274 25.6118 111.663 25.7717 111.117 26.0915C110.572 26.4113 110.139 26.844 109.819 27.3895C109.5 27.9351 109.34 28.5464 109.34 29.2237V35.9112C109.34 36.5884 109.5 37.1998 109.819 37.7453C110.139 38.2908 110.572 38.7235 111.117 39.0433C111.663 39.3631 112.274 39.523 112.952 39.523Z" fill="#343F52"/>
<path d="M94.7831 43.163C93.2781 43.163 91.9613 42.8479 90.8326 42.2178C89.7039 41.5876 88.8245 40.7081 88.1943 39.5794C87.5641 38.4507 87.249 37.1339 87.249 35.629V29.5341C87.249 28.0291 87.5641 26.7123 88.1943 25.5836C88.8245 24.4549 89.7039 23.5755 90.8326 22.9453C91.9613 22.3151 93.2781 22 94.7831 22C96.288 22 97.6048 22.3151 98.7335 22.9453C99.8622 23.5755 100.742 24.4549 101.372 25.5836C102.002 26.7123 102.317 28.0291 102.317 29.5341V35.629C102.317 37.1339 102.002 38.4507 101.372 39.5794C100.742 40.7081 99.8622 41.5876 98.7335 42.2178C97.6048 42.8479 96.288 43.163 94.7831 43.163ZM94.7831 39.523C95.4603 39.523 96.0717 39.3631 96.6172 39.0433C97.1627 38.7235 97.5954 38.2908 97.9152 37.7453C98.235 37.1998 98.3949 36.5884 98.3949 35.9112V29.2237C98.3949 28.5464 98.235 27.9351 97.9152 27.3895C97.5954 26.844 97.1627 26.4113 96.6172 26.0915C96.0717 25.7717 95.4603 25.6118 94.7831 25.6118C94.1058 25.6118 93.4945 25.7717 92.9489 26.0915C92.4034 26.4113 91.9707 26.844 91.6509 27.3895C91.3311 27.9351 91.1712 28.5464 91.1712 29.2237V35.9112C91.1712 36.5884 91.3311 37.1998 91.6509 37.7453C91.9707 38.2908 92.4034 38.7235 92.9489 39.0433C93.4945 39.3631 94.1058 39.523 94.7831 39.523Z" fill="#343F52"/>
<path d="M78.8093 42.7398V26.5994L75 28.9415V24.7089L78.8093 22.4232H82.7316V42.7398H78.8093Z" fill="#343F52"/>
<path d="M177.056 64.0966C175.981 64.0966 175.107 63.8547 174.435 63.3708C173.763 62.8869 173.355 62.2068 173.209 61.3305L175.193 61.0241C175.295 61.4542 175.521 61.7929 175.871 62.0402C176.22 62.2875 176.661 62.4111 177.193 62.4111C177.661 62.4111 178.021 62.3197 178.274 62.137C178.532 61.9488 178.661 61.6934 178.661 61.3708C178.661 61.1719 178.613 61.0133 178.516 60.895C178.424 60.7714 178.22 60.6531 177.903 60.5402C177.586 60.4273 177.099 60.2848 176.443 60.1128C175.712 59.9192 175.131 59.7123 174.701 59.4918C174.271 59.266 173.962 58.9999 173.774 58.6935C173.586 58.387 173.492 58.016 173.492 57.5806C173.492 57.0376 173.634 56.5645 173.919 56.1612C174.204 55.758 174.602 55.4489 175.113 55.2338C175.623 55.0134 176.226 54.9032 176.919 54.9032C177.597 54.9032 178.196 55.008 178.717 55.2177C179.244 55.4274 179.669 55.7258 179.992 56.1128C180.314 56.4999 180.513 56.9542 180.588 57.4757L178.605 57.8306C178.556 57.4596 178.387 57.1666 178.097 56.9515C177.812 56.7365 177.43 56.6155 176.951 56.5886C176.494 56.5618 176.126 56.6317 175.847 56.7983C175.567 56.9596 175.427 57.1881 175.427 57.4838C175.427 57.6505 175.484 57.7929 175.597 57.9112C175.709 58.0295 175.935 58.1478 176.274 58.266C176.618 58.3843 177.129 58.5295 177.806 58.7015C178.5 58.8789 179.053 59.0832 179.467 59.3144C179.887 59.5402 180.188 59.8117 180.371 60.1289C180.559 60.4461 180.653 60.8305 180.653 61.2821C180.653 62.1585 180.333 62.8466 179.693 63.3466C179.059 63.8466 178.18 64.0966 177.056 64.0966Z" fill="#343F52"/>
<path d="M168.258 64.0966C167.387 64.0966 166.627 63.9004 165.976 63.5079C165.326 63.1154 164.82 62.5751 164.46 61.887C164.105 61.1934 163.928 60.3977 163.928 59.4999C163.928 58.5859 164.111 57.7849 164.476 57.0967C164.842 56.4085 165.35 55.8709 166 55.4838C166.651 55.0967 167.403 54.9032 168.258 54.9032C169.135 54.9032 169.898 55.0994 170.549 55.4919C171.199 55.8844 171.705 56.4274 172.065 57.1209C172.425 57.8091 172.605 58.6021 172.605 59.4999C172.605 60.4031 172.422 61.2015 172.057 61.895C171.696 62.5832 171.191 63.1235 170.541 63.516C169.89 63.9031 169.129 64.0966 168.258 64.0966ZM168.258 62.274C169.033 62.274 169.608 62.016 169.984 61.4999C170.36 60.9837 170.549 60.3171 170.549 59.4999C170.549 58.6558 170.358 57.9838 169.976 57.4838C169.594 56.9784 169.022 56.7257 168.258 56.7257C167.737 56.7257 167.307 56.844 166.968 57.0806C166.635 57.3118 166.387 57.637 166.226 58.0564C166.065 58.4703 165.984 58.9515 165.984 59.4999C165.984 60.344 166.175 61.0187 166.557 61.5241C166.944 62.0241 167.511 62.274 168.258 62.274Z" fill="#343F52"/>
<path d="M163.464 63.8547C162.888 63.9622 162.324 64.0079 161.77 63.9918C161.222 63.981 160.73 63.8816 160.294 63.6934C159.859 63.4998 159.528 63.1961 159.302 62.7821C159.103 62.4058 158.999 62.0214 158.988 61.6289C158.977 61.2364 158.972 60.7929 158.972 60.2983V52.7258H160.907V60.1854C160.907 60.5348 160.91 60.8413 160.915 61.1047C160.926 61.3682 160.982 61.5832 161.085 61.7499C161.278 62.0724 161.587 62.2525 162.012 62.2902C162.437 62.3278 162.921 62.3063 163.464 62.2257V63.8547ZM157.391 56.6693V55.1451H163.464V56.6693H157.391Z" fill="#343F52"/>
<path d="M154.483 53.8226V52.0403H156.427V53.8226H154.483ZM154.483 63.8547V55.1451H156.427V63.8547H154.483Z" fill="#343F52"/>
<path d="M149.063 64.0966C148.181 64.0966 147.407 63.9057 146.741 63.524C146.074 63.1423 145.552 62.6128 145.176 61.9353C144.805 61.2579 144.62 60.4784 144.62 59.5967C144.62 58.6451 144.802 57.8198 145.168 57.1209C145.534 56.4166 146.042 55.8709 146.692 55.4838C147.343 55.0967 148.095 54.9032 148.95 54.9032C149.853 54.9032 150.62 55.1155 151.249 55.5403C151.883 55.9596 152.353 56.5537 152.66 57.3225C152.966 58.0913 153.082 58.9972 153.007 60.0402H151.079V59.3305C151.074 58.3843 150.907 57.6935 150.579 57.258C150.251 56.8225 149.735 56.6048 149.031 56.6048C148.235 56.6048 147.644 56.8521 147.257 57.3467C146.87 57.8359 146.676 58.5537 146.676 59.4999C146.676 60.3816 146.87 61.0644 147.257 61.5483C147.644 62.0321 148.208 62.274 148.95 62.274C149.429 62.274 149.84 62.1692 150.184 61.9595C150.534 61.7445 150.802 61.4354 150.991 61.0321L152.91 61.6128C152.577 62.3977 152.06 63.0079 151.361 63.4434C150.668 63.8789 149.902 64.0966 149.063 64.0966ZM146.063 60.0402V58.5725H152.055V60.0402H146.063Z" fill="#343F52"/>
<path d="M140.565 63.8547V55.008C140.565 54.7876 140.573 54.5457 140.589 54.2822C140.605 54.0134 140.651 53.7473 140.726 53.4839C140.801 53.2204 140.938 52.9812 141.137 52.7661C141.385 52.4919 141.651 52.3038 141.936 52.2016C142.226 52.0941 142.511 52.0349 142.791 52.0242C143.07 52.0081 143.315 52 143.524 52H144.613V53.5806H143.605C143.234 53.5806 142.957 53.6747 142.774 53.8629C142.597 54.0457 142.508 54.2876 142.508 54.5887V63.8547H140.565ZM139.162 56.6693V55.1451H144.613V56.6693H139.162Z" fill="#343F52"/>
<path d="M132.183 64.0966C131.107 64.0966 130.234 63.8547 129.562 63.3708C128.89 62.8869 128.481 62.2068 128.336 61.3305L130.32 61.0241C130.422 61.4542 130.648 61.7929 130.997 62.0402C131.347 62.2875 131.788 62.4111 132.32 62.4111C132.787 62.4111 133.148 62.3197 133.4 62.137C133.658 61.9488 133.787 61.6934 133.787 61.3708C133.787 61.1719 133.739 61.0133 133.642 60.895C133.551 60.7714 133.347 60.6531 133.029 60.5402C132.712 60.4273 132.226 60.2848 131.57 60.1128C130.839 59.9192 130.258 59.7123 129.828 59.4918C129.398 59.266 129.089 58.9999 128.9 58.6935C128.712 58.387 128.618 58.016 128.618 57.5806C128.618 57.0376 128.761 56.5645 129.046 56.1612C129.331 55.758 129.728 55.4489 130.239 55.2338C130.75 55.0134 131.352 54.9032 132.046 54.9032C132.723 54.9032 133.322 55.008 133.844 55.2177C134.371 55.4274 134.796 55.7258 135.118 56.1128C135.441 56.4999 135.64 56.9542 135.715 57.4757L133.731 57.8306C133.683 57.4596 133.513 57.1666 133.223 56.9515C132.938 56.7365 132.556 56.6155 132.078 56.5886C131.621 56.5618 131.253 56.6317 130.973 56.7983C130.693 56.9596 130.554 57.1881 130.554 57.4838C130.554 57.6505 130.61 57.7929 130.723 57.9112C130.836 58.0295 131.062 58.1478 131.4 58.266C131.744 58.3843 132.255 58.5295 132.933 58.7015C133.626 58.8789 134.18 59.0832 134.594 59.3144C135.013 59.5402 135.314 59.8117 135.497 60.1289C135.685 60.4461 135.779 60.8305 135.779 61.2821C135.779 62.1585 135.459 62.8466 134.82 63.3466C134.185 63.8466 133.306 64.0966 132.183 64.0966Z" fill="#343F52"/>
<path d="M123.385 64.0966C122.514 64.0966 121.753 63.9004 121.103 63.5079C120.452 63.1154 119.947 62.5751 119.586 61.887C119.232 61.1934 119.054 60.3977 119.054 59.4999C119.054 58.5859 119.237 57.7849 119.603 57.0967C119.968 56.4085 120.476 55.8709 121.127 55.4838C121.777 55.0967 122.53 54.9032 123.385 54.9032C124.261 54.9032 125.025 55.0994 125.675 55.4919C126.326 55.8844 126.831 56.4274 127.191 57.1209C127.551 57.8091 127.731 58.6021 127.731 59.4999C127.731 60.4031 127.549 61.2015 127.183 61.895C126.823 62.5832 126.318 63.1235 125.667 63.516C125.016 63.9031 124.256 64.0966 123.385 64.0966ZM123.385 62.274C124.159 62.274 124.734 62.016 125.111 61.4999C125.487 60.9837 125.675 60.3171 125.675 59.4999C125.675 58.6558 125.484 57.9838 125.103 57.4838C124.721 56.9784 124.148 56.7257 123.385 56.7257C122.863 56.7257 122.433 56.844 122.094 57.0806C121.761 57.3118 121.514 57.637 121.353 58.0564C121.191 58.4703 121.111 58.9515 121.111 59.4999C121.111 60.344 121.301 61.0187 121.683 61.5241C122.07 62.0241 122.637 62.274 123.385 62.274Z" fill="#343F52"/>
<path d="M118.59 63.8547C118.015 63.9622 117.45 64.0079 116.897 63.9918C116.348 63.981 115.856 63.8816 115.421 63.6934C114.985 63.4998 114.655 63.1961 114.429 62.7821C114.23 62.4058 114.125 62.0214 114.114 61.6289C114.104 61.2364 114.098 60.7929 114.098 60.2983V52.7258H116.034V60.1854C116.034 60.5348 116.036 60.8413 116.042 61.1047C116.052 61.3682 116.109 61.5832 116.211 61.7499C116.405 62.0724 116.714 62.2525 117.138 62.2902C117.563 62.3278 118.047 62.3063 118.59 62.2257V63.8547ZM112.518 56.6693V55.1451H118.59V56.6693H112.518Z" fill="#343F52"/>
<path d="M108.227 64.0966C107.345 64.0966 106.571 63.9057 105.904 63.524C105.237 63.1423 104.716 62.6128 104.34 61.9353C103.969 61.2579 103.783 60.4784 103.783 59.5967C103.783 58.6451 103.966 57.8198 104.332 57.1209C104.697 56.4166 105.205 55.8709 105.856 55.4838C106.506 55.0967 107.259 54.9032 108.114 54.9032C109.017 54.9032 109.783 55.1155 110.412 55.5403C111.047 55.9596 111.517 56.5537 111.823 57.3225C112.13 58.0913 112.245 58.9972 112.17 60.0402H110.243V59.3305C110.237 58.3843 110.071 57.6935 109.743 57.258C109.415 56.8225 108.899 56.6048 108.194 56.6048C107.399 56.6048 106.807 56.8521 106.42 57.3467C106.033 57.8359 105.84 58.5537 105.84 59.4999C105.84 60.3816 106.033 61.0644 106.42 61.5483C106.807 62.0321 107.372 62.274 108.114 62.274C108.592 62.274 109.004 62.1692 109.348 61.9595C109.697 61.7445 109.966 61.4354 110.154 61.0321L112.073 61.6128C111.74 62.3977 111.224 63.0079 110.525 63.4434C109.832 63.8789 109.065 64.0966 108.227 64.0966ZM105.227 60.0402V58.5725H111.219V60.0402H105.227Z" fill="#343F52"/>
<path d="M98.814 67.7256V65.903H99.2252C99.6984 65.903 100.034 65.7928 100.233 65.5724C100.432 65.352 100.532 65.0267 100.532 64.5966V55.1451H102.467V65.4676C102.467 66.1719 102.26 66.7229 101.846 67.1208C101.438 67.524 100.868 67.7256 100.137 67.7256H98.814ZM100.532 53.8226V52.0403H102.467V53.8226H100.532Z" fill="#343F52"/>
<path d="M94.4644 64.0966C93.5934 64.0966 92.8327 63.9004 92.1821 63.5079C91.5316 63.1154 91.0263 62.5751 90.666 61.887C90.3112 61.1934 90.1338 60.3977 90.1338 59.4999C90.1338 58.5859 90.3166 57.7849 90.6822 57.0967C91.0478 56.4085 91.5558 55.8709 92.2063 55.4838C92.8569 55.0967 93.6095 54.9032 94.4644 54.9032C95.3407 54.9032 96.1041 55.0994 96.7547 55.4919C97.4052 55.8844 97.9106 56.4274 98.2708 57.1209C98.631 57.8091 98.8111 58.6021 98.8111 59.4999C98.8111 60.4031 98.6283 61.2015 98.2627 61.895C97.9025 62.5832 97.3971 63.1235 96.7466 63.516C96.0961 63.9031 95.3353 64.0966 94.4644 64.0966ZM94.4644 62.274C95.2386 62.274 95.8138 62.016 96.1902 61.4999C96.5665 60.9837 96.7547 60.3171 96.7547 59.4999C96.7547 58.6558 96.5638 57.9838 96.1821 57.4838C95.8004 56.9784 95.2278 56.7257 94.4644 56.7257C93.9429 56.7257 93.5128 56.844 93.1741 57.0806C92.8407 57.3118 92.5934 57.637 92.4321 58.0564C92.2709 58.4703 92.1902 58.9515 92.1902 59.4999C92.1902 60.344 92.3811 61.0187 92.7628 61.5241C93.1499 62.0241 93.7171 62.274 94.4644 62.274Z" fill="#343F52"/>
<path d="M84.8174 63.8547V55.1451H86.5351V57.2661L86.3254 56.9919C86.433 56.7016 86.5754 56.4381 86.7528 56.2016C86.9356 55.9596 87.1534 55.7607 87.4061 55.6048C87.6211 55.4596 87.8577 55.3467 88.1157 55.2661C88.3792 55.1801 88.648 55.129 88.9222 55.1129C89.1964 55.0914 89.4625 55.1021 89.7205 55.1451V56.9596C89.4625 56.8843 89.1641 56.8602 88.8254 56.887C88.4921 56.9139 88.191 57.008 87.9222 57.1693C87.6534 57.3144 87.4329 57.4999 87.2609 57.7257C87.0942 57.9515 86.9706 58.2096 86.8899 58.4999C86.8093 58.7849 86.769 59.094 86.769 59.4273V63.8547H84.8174Z" fill="#343F52"/>
<path d="M75 63.8547V52.2419H79.7983C79.9112 52.2419 80.0564 52.2473 80.2338 52.2581C80.4112 52.2634 80.5752 52.2796 80.7257 52.3065C81.3978 52.4086 81.9515 52.6317 82.387 52.9758C82.8278 53.3199 83.1531 53.7554 83.3628 54.2822C83.5778 54.8037 83.6854 55.3844 83.6854 56.0241C83.6854 56.6585 83.5778 57.2392 83.3628 57.7661C83.1477 58.2876 82.8198 58.7203 82.3789 59.0644C81.9435 59.4085 81.3924 59.6316 80.7257 59.7338C80.5752 59.7553 80.4085 59.7714 80.2257 59.7822C80.0483 59.7929 79.9058 59.7983 79.7983 59.7983H76.9435V63.8547H75ZM76.9435 57.9838H79.7177C79.8252 57.9838 79.9462 57.9784 80.0806 57.9677C80.215 57.9569 80.3386 57.9354 80.4515 57.9032C80.7741 57.8225 81.0268 57.68 81.2096 57.4757C81.3978 57.2714 81.5295 57.0403 81.6047 56.7822C81.6854 56.5241 81.7257 56.2715 81.7257 56.0241C81.7257 55.7768 81.6854 55.5242 81.6047 55.2661C81.5295 55.0027 81.3978 54.7688 81.2096 54.5645C81.0268 54.3602 80.7741 54.2177 80.4515 54.1371C80.3386 54.1048 80.215 54.086 80.0806 54.0806C79.9462 54.0699 79.8252 54.0645 79.7177 54.0645H76.9435V57.9838Z" fill="#343F52"/>
</g>
<defs>
<clipPath id="clip0_43_2">
<rect width="203" height="91" fill="white"/>
</clipPath>
</defs>
</svg>
