<svg width="14" height="14" viewBox="0 0 14 14" fill="none" xmlns="http://www.w3.org/2000/svg">
<path fill-rule="evenodd" clip-rule="evenodd" d="M7.75 0.851013C7.75 0.652101 7.67098 0.461335 7.53033 0.320683C7.38968 0.180031 7.19891 0.101013 7 0.101013C6.80109 0.101013 6.61032 0.180031 6.46967 0.320683C6.32902 0.461335 6.25 0.652101 6.25 0.851013V13.15C6.25 13.3489 6.32902 13.5397 6.46967 13.6803C6.61032 13.821 6.80109 13.9 7 13.9C7.19891 13.9 7.38968 13.821 7.53033 13.6803C7.67098 13.5397 7.75 13.3489 7.75 13.15V0.851013ZM4 2.46601C4.19891 2.46601 4.38968 2.54503 4.53033 2.68568C4.67098 2.82634 4.75 3.0171 4.75 3.21601V10.784C4.75 10.9829 4.67098 11.1737 4.53033 11.3143C4.38968 11.455 4.19891 11.534 4 11.534C3.80109 11.534 3.61032 11.455 3.46967 11.3143C3.32902 11.1737 3.25 10.9829 3.25 10.784V3.21601C3.25 3.0171 3.32902 2.82634 3.46967 2.68568C3.61032 2.54503 3.80109 2.46601 4 2.46601ZM1 4.83101C1.19891 4.83101 1.38968 4.91003 1.53033 5.05068C1.67098 5.19134 1.75 5.3821 1.75 5.58101V8.42001C1.75 8.61893 1.67098 8.80969 1.53033 8.95034C1.38968 9.091 1.19891 9.17001 1 9.17001C0.801088 9.17001 0.610322 9.091 0.46967 8.95034C0.329018 8.80969 0.25 8.61893 0.25 8.42001V5.58101C0.25 5.3821 0.329018 5.19134 0.46967 5.05068C0.610322 4.91003 0.801088 4.83101 1 4.83101ZM10 2.46601C10.1989 2.46601 10.3897 2.54503 10.5303 2.68568C10.671 2.82634 10.75 3.0171 10.75 3.21601V10.784C10.75 10.9829 10.671 11.1737 10.5303 11.3143C10.3897 11.455 10.1989 11.534 10 11.534C9.80109 11.534 9.61032 11.455 9.46967 11.3143C9.32902 11.1737 9.25 10.9829 9.25 10.784V3.21601C9.25 3.0171 9.32902 2.82634 9.46967 2.68568C9.61032 2.54503 9.80109 2.46601 10 2.46601ZM13.75 5.58101C13.75 5.3821 13.671 5.19134 13.5303 5.05068C13.3897 4.91003 13.1989 4.83101 13 4.83101C12.8011 4.83101 12.6103 4.91003 12.4697 5.05068C12.329 5.19134 12.25 5.3821 12.25 5.58101V8.42001C12.25 8.61893 12.329 8.80969 12.4697 8.95034C12.6103 9.091 12.8011 9.17001 13 9.17001C13.1989 9.17001 13.3897 9.091 13.5303 8.95034C13.671 8.80969 13.75 8.61893 13.75 8.42001V5.58101Z" fill="url(#paint0_linear_53_125)"/>
<defs>
<linearGradient id="paint0_linear_53_125" x1="7" y1="0.101013" x2="7" y2="13.9" gradientUnits="userSpaceOnUse">
<stop stop-color="#7FACFC"/>
<stop offset="1" stop-color="#4789FF"/>
</linearGradient>
</defs>
</svg>
