<svg width="27" height="27" viewBox="0 0 27 27" fill="none" xmlns="http://www.w3.org/2000/svg">
<path d="M14.9889 2.35879C14.9889 1.97118 14.8315 1.5999 14.552 1.3265C14.2726 1.05317 13.8942 0.9 13.5 0.9C13.1058 0.9 12.7274 1.05317 12.448 1.3265C12.1685 1.5999 12.0111 1.97118 12.0111 2.35879V24.6412C12.0111 25.0288 12.1685 25.4001 12.448 25.6735C12.7274 25.9468 13.1058 26.1 13.5 26.1C13.8942 26.1 14.2726 25.9468 14.552 25.6735C14.8315 25.4001 14.9889 25.0288 14.9889 24.6412V2.35879ZM8.99647 5.61123C8.71709 5.3379 8.33862 5.18473 7.94444 5.18473C7.55026 5.18473 7.1718 5.3379 6.89242 5.61123C6.61296 5.88463 6.45556 6.25591 6.45556 6.64353V20.3547C6.45556 20.7423 6.61296 21.1136 6.89242 21.387C7.1718 21.6603 7.55026 21.8135 7.94444 21.8135C8.33862 21.8135 8.71709 21.6603 8.99647 21.387C9.27592 21.1136 9.43333 20.7423 9.43333 20.3547V6.64353C9.43333 6.25591 9.27592 5.88463 8.99647 5.61123ZM3.44091 9.89596C3.16153 9.62264 2.78307 9.46946 2.38889 9.46946C1.99471 9.46946 1.61624 9.62264 1.33686 9.89596C1.05741 10.1694 0.9 10.5406 0.9 10.9283V16.0717C0.9 16.4594 1.05741 16.8306 1.33686 17.104C1.61624 17.3774 1.99471 17.5305 2.38889 17.5305C2.78307 17.5305 3.16153 17.3774 3.44091 17.104C3.72037 16.8306 3.87778 16.4594 3.87778 16.0717V10.9283C3.87778 10.5406 3.72037 10.1694 3.44091 9.89596ZM20.1076 5.61123C19.8282 5.3379 19.4497 5.18473 19.0556 5.18473C18.6614 5.18473 18.2829 5.3379 18.0035 5.61123C17.7241 5.88463 17.5667 6.25591 17.5667 6.64353V20.3547C17.5667 20.7423 17.7241 21.1136 18.0035 21.387C18.2829 21.6603 18.6614 21.8135 19.0556 21.8135C19.4497 21.8135 19.8282 21.6603 20.1076 21.387C20.387 21.1136 20.5444 20.7423 20.5444 20.3547V6.64353C20.5444 6.25591 20.387 5.88463 20.1076 5.61123ZM26.1 10.9283C26.1 10.5406 25.9426 10.1694 25.6631 9.89596C25.3838 9.62264 25.0053 9.46946 24.6111 9.46946C24.2169 9.46946 23.8385 9.62264 23.5591 9.89596C23.2796 10.1694 23.1222 10.5406 23.1222 10.9283V16.0717C23.1222 16.4594 23.2796 16.8306 23.5591 17.104C23.8385 17.3774 24.2169 17.5305 24.6111 17.5305C25.0053 17.5305 25.3838 17.3774 25.6631 17.104C25.9426 16.8306 26.1 16.4594 26.1 16.0717V10.9283Z" fill="white" stroke="white" stroke-width="0.2"/>
</svg>
