<svg width="19" height="25" viewBox="0 0 19 25" fill="none" xmlns="http://www.w3.org/2000/svg">
<path d="M11.9032 18.6521C11.1573 19.398 10.1457 19.817 9.09086 19.817C8.03603 19.817 7.02439 19.398 6.27851 18.6521C5.53262 17.9062 5.11359 16.8946 5.11359 15.8398C5.11359 14.7849 5.53262 13.7733 6.27851 13.0274C7.02439 12.2815 8.03603 11.8625 9.09086 11.8625C10.1457 11.8625 11.1573 12.2815 11.9032 13.0274C12.6491 13.7733 13.0681 14.7849 13.0681 15.8398C13.0681 16.8946 12.6491 17.9062 11.9032 18.6521ZM9.09086 18.6807C9.84432 18.6807 10.5669 18.3814 11.0997 17.8486C11.6325 17.3158 11.9318 16.5932 11.9318 15.8398C11.9318 15.0863 11.6325 14.3637 11.0997 13.8309C10.5669 13.2982 9.84432 12.9989 9.09086 12.9989C8.33741 12.9989 7.61481 13.2982 7.08204 13.8309C6.54927 14.3637 6.24996 15.0863 6.24996 15.8398C6.24996 16.5932 6.54927 17.3158 7.08204 17.8486C7.61481 18.3814 8.33741 18.6807 9.09086 18.6807Z" stroke="url(#paint0_linear_54_155)" stroke-width="1.13636"/>
<path d="M10.2964 8.07348C9.97672 8.39315 9.54316 8.57273 9.09109 8.57273C8.63901 8.57273 8.20546 8.39315 7.88579 8.07348C7.56613 7.75382 7.38654 7.32026 7.38654 6.86819C7.38654 6.41611 7.56613 5.98255 7.88579 5.66289C8.20546 5.34323 8.63901 5.16364 9.09109 5.16364C9.54316 5.16364 9.97672 5.34323 10.2964 5.66289C10.616 5.98255 10.7956 6.41611 10.7956 6.86819C10.7956 7.32026 10.616 7.75382 10.2964 8.07348Z" stroke="url(#paint1_linear_54_155)" stroke-width="1.13636"/>
<path fill-rule="evenodd" clip-rule="evenodd" d="M3.40909 0C2.50494 0 1.63783 0.359171 0.9985 0.9985C0.359171 1.63783 0 2.50494 0 3.40909V21.5909C0 22.4951 0.359171 23.3622 0.9985 24.0015C1.63783 24.6408 2.50494 25 3.40909 25H14.7727C15.6769 25 16.544 24.6408 17.1833 24.0015C17.8226 23.3622 18.1818 22.4951 18.1818 21.5909V3.40909C18.1818 2.50494 17.8226 1.63783 17.1833 0.9985C16.544 0.359171 15.6769 0 14.7727 0H3.40909ZM14.7727 2.27273H3.40909C3.10771 2.27273 2.81867 2.39245 2.60556 2.60556C2.39245 2.81867 2.27273 3.10771 2.27273 3.40909V21.5909C2.27273 21.8923 2.39245 22.1813 2.60556 22.3944C2.81867 22.6075 3.10771 22.7273 3.40909 22.7273H14.7727C15.0741 22.7273 15.3631 22.6075 15.5763 22.3944C15.7894 22.1813 15.9091 21.8923 15.9091 21.5909V3.40909C15.9091 3.10771 15.7894 2.81867 15.5763 2.60556C15.3631 2.39245 15.0741 2.27273 14.7727 2.27273Z" fill="url(#paint2_linear_54_155)"/>
<defs>
<linearGradient id="paint0_linear_54_155" x1="9.09086" y1="11.2943" x2="9.09086" y2="20.3852" gradientUnits="userSpaceOnUse">
<stop stop-color="#7FACFC"/>
<stop offset="1" stop-color="#4789FF"/>
</linearGradient>
<linearGradient id="paint1_linear_54_155" x1="9.09109" y1="4.59546" x2="9.09109" y2="9.14091" gradientUnits="userSpaceOnUse">
<stop stop-color="#7FACFC"/>
<stop offset="1" stop-color="#4789FF"/>
</linearGradient>
<linearGradient id="paint2_linear_54_155" x1="9.09091" y1="0" x2="9.09091" y2="25" gradientUnits="userSpaceOnUse">
<stop stop-color="#7FACFC"/>
<stop offset="1" stop-color="#4789FF"/>
</linearGradient>
</defs>
</svg>
