<svg width="24" height="22" viewBox="0 0 24 22" fill="none" xmlns="http://www.w3.org/2000/svg">
<path d="M12.5714 17.1429C12.5714 16.7543 12.6171 16.3771 12.6743 16H2.28571V4.57143L11.4286 10.2857L20.5714 4.57143V10.3886C21.3943 10.5257 22.16 10.8114 22.8571 11.2114V2.28571C22.8571 1.02857 21.8286 0 20.5714 0H2.28571C1.02857 0 0 1.02857 0 2.28571V16C0 17.2571 1.02857 18.2857 2.28571 18.2857H12.6743C12.6171 17.9086 12.5714 17.5314 12.5714 17.1429ZM20.5714 2.28571L11.4286 8L2.28571 2.28571H20.5714ZM20.5714 12.5714V16H24V18.2857H20.5714V21.7143H18.2857V18.2857H14.8571V16H18.2857V12.5714H20.5714Z" fill="url(#paint0_linear_52_117)"/>
<defs>
<linearGradient id="paint0_linear_52_117" x1="12" y1="0" x2="12" y2="21.7143" gradientUnits="userSpaceOnUse">
<stop stop-color="#7FACFC"/>
<stop offset="1" stop-color="#4789FF"/>
</linearGradient>
</defs>
</svg>
