<svg width="22" height="23" viewBox="0 0 22 23" fill="none" xmlns="http://www.w3.org/2000/svg">
<path d="M19 1H3C1.89543 1 1 2.17525 1 3.625V19.375C1 20.8247 1.89543 22 3 22H19C20.1046 22 21 20.8247 21 19.375V3.625C21 2.17525 20.1046 1 19 1Z" stroke="url(#paint0_linear_53_135)" stroke-width="1.85" stroke-linecap="round" stroke-linejoin="round"/>
<path d="M5 6.25C6.5621 6.25 7.4379 6.25 9 6.25M13 6.25H13.01M17 6.25H17.01M1 11.5H21M5 11.5V14.125V16.75M9 11.5V14.125V16.75M13 11.5V16.75M17 11.5V16.75" stroke="url(#paint1_linear_53_135)" stroke-width="1.85" stroke-linecap="round" stroke-linejoin="round"/>
<path d="M5 6.25C6.5621 6.25 7.4379 6.25 9 6.25" stroke="#7FACFC" stroke-width="1.85" stroke-linecap="round" stroke-linejoin="round"/>
<defs>
<linearGradient id="paint0_linear_53_135" x1="11" y1="1" x2="11" y2="22" gradientUnits="userSpaceOnUse">
<stop stop-color="#7FACFC"/>
<stop offset="1" stop-color="#4789FF"/>
</linearGradient>
<linearGradient id="paint1_linear_53_135" x1="11" y1="6.25" x2="11" y2="16.75" gradientUnits="userSpaceOnUse">
<stop stop-color="#7FACFC"/>
<stop offset="1" stop-color="#4789FF"/>
</linearGradient>
</defs>
</svg>
