<svg width="18" height="21" viewBox="0 0 18 21" fill="none" xmlns="http://www.w3.org/2000/svg">
<path fill-rule="evenodd" clip-rule="evenodd" d="M3.99883 0C4.20743 8.32272e-05 4.41077 0.0653942 4.5804 0.18679C4.75003 0.308185 4.87746 0.479587 4.94483 0.677L5.07483 1.055C5.22283 1.48875 5.46824 1.88283 5.79222 2.20699C6.11621 2.53115 6.51016 2.77677 6.94383 2.925L7.32183 3.054C7.51903 3.12157 7.69018 3.24908 7.81135 3.41869C7.93253 3.58831 7.99767 3.79155 7.99767 4C7.99767 4.20845 7.93253 4.41169 7.81135 4.58131C7.69018 4.75092 7.51903 4.87843 7.32183 4.946L6.94383 5.076C6.51008 5.224 6.116 5.46941 5.79184 5.79339C5.46768 6.11738 5.22206 6.51133 5.07383 6.945L4.94483 7.323C4.87726 7.5202 4.74975 7.69134 4.58014 7.81252C4.41053 7.93369 4.20728 7.99883 3.99883 7.99883C3.79038 7.99883 3.58714 7.93369 3.41753 7.81252C3.24791 7.69134 3.12041 7.5202 3.05283 7.323L2.92283 6.945C2.77484 6.51125 2.52943 6.11717 2.20544 5.79301C1.88146 5.46885 1.48751 5.22323 1.05383 5.075L0.675833 4.946C0.478638 4.87843 0.307489 4.75092 0.186315 4.58131C0.065141 4.41169 0 4.20845 0 4C0 3.79155 0.065141 3.58831 0.186315 3.41869C0.307489 3.24908 0.478638 3.12157 0.675833 3.054L1.05383 2.924C1.48759 2.776 1.88167 2.53059 2.20583 2.20661C2.52998 1.88262 2.7756 1.48867 2.92383 1.055L3.05283 0.677C3.12021 0.479587 3.24763 0.308185 3.41726 0.18679C3.58689 0.0653942 3.79024 8.32272e-05 3.99883 0ZM3.19483 4C3.49248 3.76376 3.76222 3.49435 3.99883 3.197C4.23539 3.4947 4.50513 3.76344 4.80283 4C4.5035 4.23733 4.2355 4.50533 3.99883 4.804C3.7615 4.50467 3.4935 4.23667 3.19483 4Z" fill="url(#paint0_linear_53_146)"/>
<path fill-rule="evenodd" clip-rule="evenodd" d="M16.0248 1.27C16.2398 1.19845 16.4681 1.17652 16.6927 1.20584C16.9174 1.23516 17.1324 1.31498 17.3218 1.4393C17.5112 1.56362 17.6699 1.72921 17.7861 1.92366C17.9023 2.1181 17.973 2.33634 17.9928 2.562L17.9988 2.694V6.279C17.9987 6.67136 17.8831 7.055 17.6665 7.38217C17.45 7.70935 17.142 7.96559 16.7808 8.119L16.6308 8.176L11.9988 9.721V16.5L11.9938 16.712C11.9473 17.6939 11.5806 18.6336 10.9496 19.3874C10.3186 20.1412 9.45821 20.6677 8.49982 20.8863C7.54142 21.105 6.53779 21.0038 5.64233 20.5982C4.74687 20.1927 4.00884 19.5051 3.54105 18.6405C3.07326 17.7759 2.90145 16.7819 3.05187 15.8105C3.2023 14.839 3.66668 13.9436 4.37405 13.2609C5.08142 12.5783 5.99285 12.1461 6.96904 12.0304C7.94522 11.9146 8.93245 12.1217 9.77983 12.62L9.99883 12.758V5.44C9.99905 4.84168 10.1782 4.25709 10.5132 3.76135C10.8482 3.26562 11.3238 2.88137 11.8788 2.658L12.0498 2.594L16.0248 1.27ZM6.12712 14.4102C6.53459 14.1427 7.01138 14.0001 7.49883 14C8.16187 14 8.79776 14.2634 9.2666 14.7322C9.73544 15.2011 9.99883 15.837 9.99883 16.5L9.99383 16.664C9.96186 17.1504 9.78838 17.6168 9.49476 18.0059C9.20113 18.395 8.80016 18.6898 8.34119 18.854C7.88221 19.0181 7.38526 19.0445 6.91147 18.9299C6.43768 18.8153 6.00773 18.5647 5.67452 18.2089C5.34131 17.8532 5.11938 17.4077 5.03603 16.9275C4.95269 16.4472 5.01156 15.953 5.20542 15.5058C5.39927 15.0585 5.71964 14.6777 6.12712 14.4102ZM12.6828 4.493L15.9988 3.387V6.279L11.9988 7.612V5.441L12.0058 5.325C12.028 5.13634 12.1034 4.95789 12.2233 4.81055C12.3432 4.66321 12.5026 4.55306 12.6828 4.493Z" fill="#3761AD"/>
<defs>
<linearGradient id="paint0_linear_53_146" x1="8.99942" y1="0" x2="8.99942" y2="20.9991" gradientUnits="userSpaceOnUse">
<stop stop-color="#7FACFC"/>
<stop offset="1" stop-color="#4789FF"/>
</linearGradient>
</defs>
</svg>
