<svg width="21" height="20" viewBox="0 0 21 20" fill="none" xmlns="http://www.w3.org/2000/svg">
<path d="M1 19H3.5M1 16H3.5M1 13H3.5M1 10H3.5M6.5 19H9M6.5 16H9M6.5 13H9M6.5 10H9M6.5 7H9M6.5 4H9M6.5 1H9M12 19H14.5M17.5 19H20M12 16H14.5M17.5 16H20M12 13H14.5M17.5 13H20M17.5 10H20M17.5 7H20" stroke="url(#paint0_linear_53_121)" stroke-width="2" stroke-linecap="round" stroke-linejoin="round"/>
<defs>
<linearGradient id="paint0_linear_53_121" x1="10.5" y1="1" x2="10.5" y2="19" gradientUnits="userSpaceOnUse">
<stop stop-color="#7FACFC"/>
<stop offset="1" stop-color="#4789FF"/>
</linearGradient>
</defs>
</svg>
