<svg width="33" height="30" viewBox="0 0 33 30" fill="none" xmlns="http://www.w3.org/2000/svg">
<path fill-rule="evenodd" clip-rule="evenodd" d="M1.42139 13.0685C0.51129 13.9786 0 15.2129 0 16.5V24.2647C0 25.5518 0.51129 26.7862 1.42139 27.6963C2.3315 28.6064 3.56586 29.1176 4.85294 29.1176H12.6176C13.9047 29.1176 15.1391 28.6064 16.0492 27.6963C16.9593 26.7862 17.4706 25.5518 17.4706 24.2647V16.5C17.4706 15.2129 16.9593 13.9786 16.0492 13.0685C15.1391 12.1583 13.9047 11.6471 12.6176 11.6471H4.85294C3.56586 11.6471 2.3315 12.1583 1.42139 13.0685ZM7.37926 16.4143C7.53152 16.4269 7.67781 16.4792 7.80353 16.566L12.2605 19.4894C12.3971 19.578 12.5092 19.6995 12.5866 19.8427C12.6615 19.9888 12.7011 20.1505 12.7021 20.3147C12.7031 20.4789 12.6656 20.641 12.5924 20.7881C12.5208 20.9338 12.4115 21.0578 12.276 21.1472L7.81906 24.189C7.74142 24.2424 7.65641 24.2843 7.56671 24.3132C7.36012 24.3785 7.13666 24.3647 6.93971 24.2744C6.82664 24.2202 6.72307 24.1481 6.633 24.0609C6.54234 23.9695 6.47077 23.861 6.42245 23.7417C6.37413 23.6224 6.35002 23.4947 6.35153 23.3659V17.3968C6.35028 17.2684 6.37451 17.1411 6.42283 17.0221C6.47114 16.9032 6.54258 16.795 6.633 16.7038C6.71963 16.6153 6.82243 16.5441 6.93582 16.4942C7.07411 16.4292 7.22701 16.4017 7.37926 16.4143Z" fill="url(#paint0_linear_46_64)"/>
<path fill-rule="evenodd" clip-rule="evenodd" d="M6.79412 0C5.50704 0 4.27267 0.511291 3.36257 1.42139C2.45247 2.3315 1.94118 3.56586 1.94118 4.85294V10.3601C2.54294 10.0728 3.19712 9.87282 3.88235 9.77382V4.85294C3.88235 4.08069 4.18913 3.34007 4.73519 2.79401C5.28125 2.24795 6.02187 1.94118 6.79412 1.94118H20.3824C21.1546 1.94118 21.8952 2.24795 22.4413 2.79401C22.9873 3.34007 23.2941 4.08069 23.2941 4.85294V18.4412C23.2941 19.2134 22.9873 19.954 22.4413 20.5001C21.8952 21.0462 21.1546 21.3529 20.3824 21.3529H19.4118V23.2941H20.3824C21.6694 23.2941 22.9038 22.7828 23.8139 21.8727C24.724 20.9626 25.2353 19.7283 25.2353 18.4412V16.5L29.8941 19.9941C30.1825 20.2104 30.5255 20.3421 30.8845 20.3745C31.2435 20.4069 31.6045 20.3386 31.9269 20.1774C32.2494 20.0162 32.5206 19.7684 32.7101 19.4617C32.8996 19.1551 33 18.8017 33 18.4412V4.85294C33 4.49244 32.8996 4.13906 32.7101 3.8324C32.5206 3.52575 32.2494 3.27792 31.9269 3.1167C31.6045 2.95548 31.2435 2.88723 30.8845 2.91961C30.5255 2.95198 30.1825 3.0837 29.8941 3.3L25.2353 6.79412V4.85294C25.2353 3.56586 24.724 2.3315 23.8139 1.42139C22.9038 0.511291 21.6694 0 20.3824 0H6.79412ZM31.0588 4.85294L25.2353 9.22059V14.0735L31.0588 18.4412V4.85294Z" fill="#264885"/>
<defs>
<linearGradient id="paint0_linear_46_64" x1="16.5" y1="0" x2="16.5" y2="29.1176" gradientUnits="userSpaceOnUse">
<stop stop-color="#7FACFC"/>
<stop offset="1" stop-color="#4789FF"/>
</linearGradient>
</defs>
</svg>
