<svg width="20" height="21" viewBox="0 0 20 21" fill="none" xmlns="http://www.w3.org/2000/svg">
<path d="M9.56 15.017L11.56 13.017V20.017H9.56V15.017Z" fill="url(#paint0_linear_53_129)"/>
<path fill-rule="evenodd" clip-rule="evenodd" d="M1.41 15.317L10.61 6.12704L13.44 8.95704L4.24 18.157L3.53749 17.4495L1.42 19.567L0 18.147H0.00999999L2.12 16.027L2.83 16.737L1.42 15.317H1.41Z" fill="#7FACFC"/>
<path d="M15.31 8.01704L11.57 4.26704C11.5134 3.45402 11.7072 2.64317 12.1252 1.94354C12.5432 1.24392 13.1654 0.689072 13.9081 0.353634C14.6509 0.0181961 15.4786 -0.0817471 16.2798 0.0672463C17.0811 0.21624 17.8175 0.607024 18.39 1.18704C18.9681 1.76103 19.3572 2.49786 19.5052 3.29898C19.6532 4.10009 19.553 4.9273 19.2181 5.66996C18.8832 6.41261 18.3296 7.0353 17.6312 7.45473C16.9328 7.87417 16.1229 8.07035 15.31 8.01704Z" fill="#264885"/>
<defs>
<linearGradient id="paint0_linear_53_129" x1="9.78588" y1="0" x2="9.78588" y2="20.017" gradientUnits="userSpaceOnUse">
<stop stop-color="#7FACFC"/>
<stop offset="1" stop-color="#4789FF"/>
</linearGradient>
</defs>
</svg>
