<svg width="122" height="27" viewBox="0 0 122 27" fill="none" xmlns="http://www.w3.org/2000/svg">
<path d="M81.9513 6.80091H82.0514L82.0898 6.70855L84.4418 1.05764L84.5282 0.85H84.3033H81.5084H81.4084L81.3699 0.942361L79.0179 6.59327L78.9315 6.80091H79.1564H81.9513ZM72.931 21.9499L72.9315 21.9507C73.6574 23.2573 74.6645 24.2801 75.951 25.0167C77.2394 25.7544 78.732 26.1209 80.4241 26.1209C82.0398 26.1209 83.5184 25.701 84.8563 24.861C86.207 24.0194 87.2044 22.8393 87.8472 21.3255L87.9125 21.1717L87.7526 21.1233L84.1177 20.0237L83.9933 19.9861L83.9383 20.1038C83.5934 20.8431 83.1033 21.405 82.4688 21.7956C81.8448 22.1758 81.0941 22.3693 80.2102 22.3693C78.8407 22.3693 77.819 21.9247 77.1201 21.051C76.5933 20.3926 76.2579 19.5246 76.1221 18.4387H84.0922H84.2422H86.0902H86.2402H87.8924H88.032L88.042 18.2995C88.1858 16.3074 87.9657 14.5681 87.375 13.0863C86.7845 11.6047 85.8752 10.4544 84.6463 9.64182C83.426 8.81802 81.9446 8.41 80.2102 8.41C78.5679 8.41 77.1153 8.78212 75.8572 9.53073C74.6 10.2788 73.6189 11.3334 72.9143 12.6907C72.2087 14.0397 71.8588 15.6274 71.8588 17.4487C71.8588 19.1401 72.2148 20.6419 72.931 21.9499ZM83.9852 15.3591H76.225C76.397 14.5069 76.6972 13.8158 77.1206 13.2807L77.1211 13.2801C77.8184 12.3891 78.8887 11.9325 80.363 11.9325C81.6648 11.9325 82.5907 12.3334 83.1755 13.1099C83.5735 13.6384 83.8462 14.3851 83.9852 15.3591Z" fill="white" stroke="white" stroke-width="0.3"/>
<path d="M60.5746 25.5127V25.6627H60.7246H64.4206H64.5706V25.5127V17.128C64.5706 16.5088 64.6455 15.9373 64.794 15.4125L64.7942 15.4118C64.9423 14.8787 65.1686 14.4071 65.4722 13.9955C65.7841 13.5864 66.1845 13.249 66.6759 12.9836L66.676 12.9838L66.6818 12.9803C67.1697 12.6875 67.7173 12.5158 68.3271 12.4666C68.955 12.4168 69.5011 12.4623 69.9684 12.5986L70.1604 12.6546V12.4546V9.01819V8.89112L70.0351 8.87023C69.5342 8.78675 69.0184 8.76597 68.4882 8.80745C67.9568 8.83883 67.4358 8.93786 66.9255 9.1044C66.4248 9.26095 65.9647 9.4803 65.5458 9.7627C65.0522 10.0677 64.6269 10.4566 64.2704 10.9285L64.2701 10.9289C64.2212 10.994 64.1738 11.0602 64.1277 11.1273V9.01819V8.86819H63.9777H60.7246H60.5746V9.01819V25.5127Z" fill="white" stroke="white" stroke-width="0.3"/>
<path d="M41.7525 12.7408L41.7523 12.7413C41.1202 14.0676 40.8061 15.5768 40.8061 17.2654C40.8061 18.9341 41.1203 20.4379 41.7521 21.7739C42.3839 23.1101 43.2767 24.17 44.4306 24.9497C45.5884 25.732 46.942 26.1209 48.4855 26.1209C50.1185 26.1209 51.4993 25.733 52.6189 24.9483C52.7638 24.8467 52.904 24.7404 53.0395 24.6293V25.5127V25.6627H53.1895H56.4426H56.5926V25.5127V3.51999V3.36999H56.4426H52.7313H52.5813V3.51999V9.53428C51.5045 8.78195 50.1822 8.40999 48.623 8.40999C47.0397 8.40999 45.656 8.79839 44.4779 9.58021C43.3033 10.3495 42.3948 11.4044 41.7525 12.7408ZM52.6203 20.0413L52.6198 20.0429C52.3533 20.8324 51.9269 21.4421 51.3434 21.8798C50.7757 22.3031 50.0161 22.522 49.0506 22.522C48.1191 22.522 47.3644 22.2895 46.7749 21.8353C46.1786 21.3759 45.7311 20.7537 45.4344 19.9629C45.1459 19.1569 45.0006 18.2583 45.0006 17.2654C45.0006 16.283 45.151 15.395 45.4492 14.5996L45.4494 14.599C45.7459 13.7986 46.2029 13.1718 46.8188 12.7122L46.8188 12.7122L46.8201 12.7113C47.43 12.2466 48.2104 12.0089 49.1728 12.0089C50.0848 12.0089 50.8136 12.2316 51.3717 12.6647L51.373 12.6657C51.936 13.0928 52.3529 13.6972 52.6198 14.488L52.6197 14.488L52.6205 14.4901C52.8986 15.2748 53.0395 16.1989 53.0395 17.2654C53.0395 18.3215 52.8987 19.246 52.6203 20.0413Z" fill="white" stroke="white" stroke-width="0.3"/>
<path d="M34.279 25.5127V25.6627H34.429H38.1556H38.3056V25.5127V16.3033C38.3056 15.8986 38.2693 15.3786 38.1979 14.7452C38.1356 14.0922 37.9906 13.4052 37.7641 12.6845C37.5348 11.955 37.1807 11.2681 36.7029 10.6241C36.2191 9.97196 35.569 9.43853 34.7571 9.02217L34.6892 9.15463L34.7571 9.02217C33.9354 8.60079 32.9019 8.39474 31.6647 8.39474C30.095 8.39474 28.7621 8.7408 27.674 9.44164C27.2093 9.73663 26.7923 10.0759 26.4234 10.4593V9.01819V8.86819H26.2734H22.9897H22.8397V9.01819V25.5127V25.6627H22.9897H26.7163H26.8663V25.5127V17.2634V17.0364C26.8663 16.0379 26.9774 15.2315 27.1939 14.6116L27.1941 14.611C27.4131 13.9741 27.6982 13.487 28.0442 13.141C28.4062 12.779 28.804 12.5277 29.2379 12.383C29.6813 12.2353 30.1286 12.1616 30.5803 12.1616C31.4358 12.1616 32.0931 12.3458 32.5682 12.6973L32.5693 12.6982C33.0667 13.059 33.4365 13.5212 33.6804 14.087L33.6803 14.087L33.6816 14.0899C33.9398 14.6559 34.1036 15.2464 34.1731 15.8619C34.2438 16.4888 34.279 17.0583 34.279 17.5709V25.5127Z" fill="white" stroke="white" stroke-width="0.3"/>
<path d="M0.856942 25.4676L0.79543 25.6627H1H4.78764H4.89765L4.93071 25.5578L6.39873 20.8976H14.8421L16.3284 25.5583L16.3617 25.6627H16.4713H20.2589H20.4635L20.402 25.4676L13.4682 3.47489L13.4351 3.36999H13.3251H7.93382H7.82383L7.79076 3.47489L0.856942 25.4676ZM10.5947 7.57785L13.6507 17.1613H7.57574L10.5947 7.57785Z" fill="white" stroke="white" stroke-width="0.3"/>
<path fill-rule="evenodd" clip-rule="evenodd" d="M110.889 2.35879C110.889 1.99842 110.743 1.6528 110.482 1.39798C110.222 1.14316 109.868 1 109.5 1C109.132 1 108.778 1.14316 108.518 1.39798C108.257 1.6528 108.111 1.99842 108.111 2.35879V24.6412C108.111 25.0016 108.257 25.3472 108.518 25.602C108.778 25.8568 109.132 26 109.5 26C109.868 26 110.222 25.8568 110.482 25.602C110.743 25.3472 110.889 25.0016 110.889 24.6412V2.35879ZM103.944 5.28473C104.313 5.28473 104.666 5.42789 104.927 5.68271C105.187 5.93754 105.333 6.28315 105.333 6.64352V20.3547C105.333 20.715 105.187 21.0607 104.927 21.3155C104.666 21.5703 104.313 21.7135 103.944 21.7135C103.576 21.7135 103.223 21.5703 102.962 21.3155C102.702 21.0607 102.556 20.715 102.556 20.3547V6.64352C102.556 6.28315 102.702 5.93754 102.962 5.68271C103.223 5.42789 103.576 5.28473 103.944 5.28473ZM98.3889 9.56946C98.7572 9.56946 99.1105 9.71262 99.371 9.96744C99.6314 10.2223 99.7778 10.5679 99.7778 10.9283V16.0717C99.7778 16.4321 99.6314 16.7777 99.371 17.0326C99.1105 17.2874 98.7572 17.4305 98.3889 17.4305C98.0205 17.4305 97.6673 17.2874 97.4068 17.0326C97.1463 16.7777 97 16.4321 97 16.0717V10.9283C97 10.5679 97.1463 10.2223 97.4068 9.96744C97.6673 9.71262 98.0205 9.56946 98.3889 9.56946ZM115.056 5.28473C115.424 5.28473 115.777 5.42789 116.038 5.68271C116.298 5.93754 116.444 6.28315 116.444 6.64352V20.3547C116.444 20.715 116.298 21.0607 116.038 21.3155C115.777 21.5703 115.424 21.7135 115.056 21.7135C114.687 21.7135 114.334 21.5703 114.073 21.3155C113.813 21.0607 113.667 20.715 113.667 20.3547V6.64352C113.667 6.28315 113.813 5.93754 114.073 5.68271C114.334 5.42789 114.687 5.28473 115.056 5.28473ZM122 10.9283C122 10.5679 121.854 10.2223 121.593 9.96744C121.333 9.71262 120.979 9.56946 120.611 9.56946C120.243 9.56946 119.889 9.71262 119.629 9.96744C119.369 10.2223 119.222 10.5679 119.222 10.9283V16.0717C119.222 16.4321 119.369 16.7777 119.629 17.0326C119.889 17.2874 120.243 17.4305 120.611 17.4305C120.979 17.4305 121.333 17.2874 121.593 17.0326C121.854 16.7777 122 16.4321 122 16.0717V10.9283Z" fill="url(#paint0_linear_55_177)"/>
<defs>
<linearGradient id="paint0_linear_55_177" x1="109.5" y1="1" x2="109.5" y2="26" gradientUnits="userSpaceOnUse">
<stop stop-color="white"/>
<stop offset="1" stop-color="#D0D0D0"/>
</linearGradient>
</defs>
</svg>
